<mxfile host="app.diagrams.net" modified="2023-12-29T23:37:18.315Z" agent="Mozilla/5.0 (Macintosh; Intel Mac OS X 10_15_7) AppleWebKit/537.36 (KHTML, like Gecko) Chrome/119.0.0.0 Safari/537.36" etag="4dBt0uyUYYYoGksWMTkn" version="22.1.15" type="github">
  <diagram id="C5RBs43oDa-KdzZeNtuy" name="Page-1">
    <mxGraphModel dx="1735" dy="925" grid="1" gridSize="10" guides="1" tooltips="1" connect="1" arrows="1" fold="1" page="0" pageScale="1" pageWidth="827" pageHeight="1169" math="0" shadow="0">
      <root>
        <mxCell id="WIyWlLk6GJQsqaUBKTNV-0" />
        <mxCell id="WIyWlLk6GJQsqaUBKTNV-1" parent="WIyWlLk6GJQsqaUBKTNV-0" />
        <mxCell id="Nu--JUsG2LK7wed0hN_F-79" value="Validation" style="verticalAlign=top;align=left;spacingTop=8;spacingLeft=2;spacingRight=12;shape=cube;size=10;direction=south;fontStyle=4;html=1;whiteSpace=wrap;" vertex="1" parent="WIyWlLk6GJQsqaUBKTNV-1">
          <mxGeometry x="40" y="130" width="760" height="180" as="geometry" />
        </mxCell>
        <mxCell id="Nu--JUsG2LK7wed0hN_F-4" value="Field" style="swimlane;fontStyle=0;childLayout=stackLayout;horizontal=1;startSize=26;fillColor=none;horizontalStack=0;resizeParent=1;resizeParentMax=0;resizeLast=0;collapsible=1;marginBottom=0;whiteSpace=wrap;html=1;" vertex="1" parent="WIyWlLk6GJQsqaUBKTNV-1">
          <mxGeometry x="338" width="152" height="104" as="geometry" />
        </mxCell>
        <mxCell id="Nu--JUsG2LK7wed0hN_F-5" value="+ __init__" style="text;strokeColor=none;fillColor=none;align=center;verticalAlign=top;spacingLeft=4;spacingRight=4;overflow=hidden;rotatable=0;points=[[0,0.5],[1,0.5]];portConstraint=eastwest;whiteSpace=wrap;html=1;" vertex="1" parent="Nu--JUsG2LK7wed0hN_F-4">
          <mxGeometry y="26" width="152" height="26" as="geometry" />
        </mxCell>
        <mxCell id="Nu--JUsG2LK7wed0hN_F-6" value="+ value" style="text;strokeColor=none;fillColor=none;align=center;verticalAlign=top;spacingLeft=4;spacingRight=4;overflow=hidden;rotatable=0;points=[[0,0.5],[1,0.5]];portConstraint=eastwest;whiteSpace=wrap;html=1;" vertex="1" parent="Nu--JUsG2LK7wed0hN_F-4">
          <mxGeometry y="52" width="152" height="26" as="geometry" />
        </mxCell>
        <mxCell id="Nu--JUsG2LK7wed0hN_F-7" value="+ __repr__" style="text;strokeColor=none;fillColor=none;align=center;verticalAlign=top;spacingLeft=4;spacingRight=4;overflow=hidden;rotatable=0;points=[[0,0.5],[1,0.5]];portConstraint=eastwest;whiteSpace=wrap;html=1;" vertex="1" parent="Nu--JUsG2LK7wed0hN_F-4">
          <mxGeometry y="78" width="152" height="26" as="geometry" />
        </mxCell>
        <mxCell id="Nu--JUsG2LK7wed0hN_F-12" value="" style="endArrow=none;html=1;edgeStyle=orthogonalEdgeStyle;rounded=0;exitX=0.497;exitY=1;exitDx=0;exitDy=0;exitPerimeter=0;" edge="1" parent="WIyWlLk6GJQsqaUBKTNV-1" source="Nu--JUsG2LK7wed0hN_F-7">
          <mxGeometry relative="1" as="geometry">
            <mxPoint x="413" y="114" as="sourcePoint" />
            <mxPoint x="413" y="130" as="targetPoint" />
          </mxGeometry>
        </mxCell>
        <mxCell id="Nu--JUsG2LK7wed0hN_F-13" value="parent" style="edgeLabel;resizable=0;html=1;align=left;verticalAlign=bottom;" connectable="0" vertex="1" parent="Nu--JUsG2LK7wed0hN_F-12">
          <mxGeometry x="-1" relative="1" as="geometry">
            <mxPoint x="7" y="16" as="offset" />
          </mxGeometry>
        </mxCell>
        <mxCell id="Nu--JUsG2LK7wed0hN_F-15" value="child" style="edgeLabel;resizable=0;html=1;align=right;verticalAlign=bottom;" connectable="0" vertex="1" parent="WIyWlLk6GJQsqaUBKTNV-1">
          <mxGeometry x="150" y="190" as="geometry" />
        </mxCell>
        <mxCell id="Nu--JUsG2LK7wed0hN_F-28" value="" style="endArrow=none;html=1;edgeStyle=orthogonalEdgeStyle;rounded=0;" edge="1" parent="WIyWlLk6GJQsqaUBKTNV-1">
          <mxGeometry relative="1" as="geometry">
            <mxPoint x="120" y="200" as="sourcePoint" />
            <mxPoint x="720" y="200" as="targetPoint" />
            <Array as="points">
              <mxPoint x="120" y="160" />
              <mxPoint x="720" y="160" />
            </Array>
          </mxGeometry>
        </mxCell>
        <mxCell id="Nu--JUsG2LK7wed0hN_F-31" value="Name" style="swimlane;fontStyle=0;childLayout=stackLayout;horizontal=1;startSize=26;fillColor=none;horizontalStack=0;resizeParent=1;resizeParentMax=0;resizeLast=0;collapsible=1;marginBottom=0;whiteSpace=wrap;html=1;" vertex="1" parent="WIyWlLk6GJQsqaUBKTNV-1">
          <mxGeometry x="80" y="200" width="80" height="52" as="geometry" />
        </mxCell>
        <mxCell id="Nu--JUsG2LK7wed0hN_F-32" value="+ value" style="text;strokeColor=none;fillColor=none;align=left;verticalAlign=top;spacingLeft=4;spacingRight=4;overflow=hidden;rotatable=0;points=[[0,0.5],[1,0.5]];portConstraint=eastwest;whiteSpace=wrap;html=1;" vertex="1" parent="Nu--JUsG2LK7wed0hN_F-31">
          <mxGeometry y="26" width="80" height="26" as="geometry" />
        </mxCell>
        <mxCell id="Nu--JUsG2LK7wed0hN_F-35" value="child" style="edgeLabel;resizable=0;html=1;align=right;verticalAlign=bottom;" connectable="0" vertex="1" parent="WIyWlLk6GJQsqaUBKTNV-1">
          <mxGeometry x="270" y="190" as="geometry" />
        </mxCell>
        <mxCell id="Nu--JUsG2LK7wed0hN_F-36" value="Birthday" style="swimlane;fontStyle=0;childLayout=stackLayout;horizontal=1;startSize=26;fillColor=none;horizontalStack=0;resizeParent=1;resizeParentMax=0;resizeLast=0;collapsible=1;marginBottom=0;whiteSpace=wrap;html=1;" vertex="1" parent="WIyWlLk6GJQsqaUBKTNV-1">
          <mxGeometry x="200" y="200" width="80" height="52" as="geometry" />
        </mxCell>
        <mxCell id="Nu--JUsG2LK7wed0hN_F-37" value="+ value" style="text;strokeColor=none;fillColor=none;align=left;verticalAlign=top;spacingLeft=4;spacingRight=4;overflow=hidden;rotatable=0;points=[[0,0.5],[1,0.5]];portConstraint=eastwest;whiteSpace=wrap;html=1;" vertex="1" parent="Nu--JUsG2LK7wed0hN_F-36">
          <mxGeometry y="26" width="80" height="26" as="geometry" />
        </mxCell>
        <mxCell id="Nu--JUsG2LK7wed0hN_F-40" value="child" style="edgeLabel;resizable=0;html=1;align=right;verticalAlign=bottom;" connectable="0" vertex="1" parent="WIyWlLk6GJQsqaUBKTNV-1">
          <mxGeometry x="390" y="190" as="geometry" />
        </mxCell>
        <mxCell id="Nu--JUsG2LK7wed0hN_F-41" value="Phone" style="swimlane;fontStyle=0;childLayout=stackLayout;horizontal=1;startSize=26;fillColor=none;horizontalStack=0;resizeParent=1;resizeParentMax=0;resizeLast=0;collapsible=1;marginBottom=0;whiteSpace=wrap;html=1;" vertex="1" parent="WIyWlLk6GJQsqaUBKTNV-1">
          <mxGeometry x="320" y="200" width="80" height="52" as="geometry" />
        </mxCell>
        <mxCell id="Nu--JUsG2LK7wed0hN_F-42" value="+ value" style="text;strokeColor=none;fillColor=none;align=left;verticalAlign=top;spacingLeft=4;spacingRight=4;overflow=hidden;rotatable=0;points=[[0,0.5],[1,0.5]];portConstraint=eastwest;whiteSpace=wrap;html=1;" vertex="1" parent="Nu--JUsG2LK7wed0hN_F-41">
          <mxGeometry y="26" width="80" height="26" as="geometry" />
        </mxCell>
        <mxCell id="Nu--JUsG2LK7wed0hN_F-45" value="child" style="edgeLabel;resizable=0;html=1;align=right;verticalAlign=bottom;" connectable="0" vertex="1" parent="WIyWlLk6GJQsqaUBKTNV-1">
          <mxGeometry x="510" y="190" as="geometry" />
        </mxCell>
        <mxCell id="Nu--JUsG2LK7wed0hN_F-46" value="Email" style="swimlane;fontStyle=0;childLayout=stackLayout;horizontal=1;startSize=26;fillColor=none;horizontalStack=0;resizeParent=1;resizeParentMax=0;resizeLast=0;collapsible=1;marginBottom=0;whiteSpace=wrap;html=1;" vertex="1" parent="WIyWlLk6GJQsqaUBKTNV-1">
          <mxGeometry x="440" y="200" width="80" height="52" as="geometry" />
        </mxCell>
        <mxCell id="Nu--JUsG2LK7wed0hN_F-47" value="+ value" style="text;strokeColor=none;fillColor=none;align=left;verticalAlign=top;spacingLeft=4;spacingRight=4;overflow=hidden;rotatable=0;points=[[0,0.5],[1,0.5]];portConstraint=eastwest;whiteSpace=wrap;html=1;" vertex="1" parent="Nu--JUsG2LK7wed0hN_F-46">
          <mxGeometry y="26" width="80" height="26" as="geometry" />
        </mxCell>
        <mxCell id="Nu--JUsG2LK7wed0hN_F-50" value="child" style="edgeLabel;resizable=0;html=1;align=right;verticalAlign=bottom;" connectable="0" vertex="1" parent="WIyWlLk6GJQsqaUBKTNV-1">
          <mxGeometry x="630" y="190" as="geometry" />
        </mxCell>
        <mxCell id="Nu--JUsG2LK7wed0hN_F-51" value="Adress" style="swimlane;fontStyle=0;childLayout=stackLayout;horizontal=1;startSize=26;fillColor=none;horizontalStack=0;resizeParent=1;resizeParentMax=0;resizeLast=0;collapsible=1;marginBottom=0;whiteSpace=wrap;html=1;" vertex="1" parent="WIyWlLk6GJQsqaUBKTNV-1">
          <mxGeometry x="560" y="200" width="80" height="52" as="geometry" />
        </mxCell>
        <mxCell id="Nu--JUsG2LK7wed0hN_F-52" value="+ value" style="text;strokeColor=none;fillColor=none;align=left;verticalAlign=top;spacingLeft=4;spacingRight=4;overflow=hidden;rotatable=0;points=[[0,0.5],[1,0.5]];portConstraint=eastwest;whiteSpace=wrap;html=1;" vertex="1" parent="Nu--JUsG2LK7wed0hN_F-51">
          <mxGeometry y="26" width="80" height="26" as="geometry" />
        </mxCell>
        <mxCell id="Nu--JUsG2LK7wed0hN_F-55" value="child" style="edgeLabel;resizable=0;html=1;align=right;verticalAlign=bottom;" connectable="0" vertex="1" parent="WIyWlLk6GJQsqaUBKTNV-1">
          <mxGeometry x="750" y="190" as="geometry" />
        </mxCell>
        <mxCell id="Nu--JUsG2LK7wed0hN_F-56" value="Note" style="swimlane;fontStyle=0;childLayout=stackLayout;horizontal=1;startSize=26;fillColor=none;horizontalStack=0;resizeParent=1;resizeParentMax=0;resizeLast=0;collapsible=1;marginBottom=0;whiteSpace=wrap;html=1;" vertex="1" parent="WIyWlLk6GJQsqaUBKTNV-1">
          <mxGeometry x="680" y="200" width="80" height="52" as="geometry" />
        </mxCell>
        <mxCell id="Nu--JUsG2LK7wed0hN_F-57" value="+ value" style="text;strokeColor=none;fillColor=none;align=left;verticalAlign=top;spacingLeft=4;spacingRight=4;overflow=hidden;rotatable=0;points=[[0,0.5],[1,0.5]];portConstraint=eastwest;whiteSpace=wrap;html=1;" vertex="1" parent="Nu--JUsG2LK7wed0hN_F-56">
          <mxGeometry y="26" width="80" height="26" as="geometry" />
        </mxCell>
        <mxCell id="Nu--JUsG2LK7wed0hN_F-60" value="" style="endArrow=none;html=1;edgeStyle=orthogonalEdgeStyle;rounded=0;" edge="1" parent="WIyWlLk6GJQsqaUBKTNV-1">
          <mxGeometry relative="1" as="geometry">
            <mxPoint x="479.5" y="200" as="sourcePoint" />
            <mxPoint x="479.5" y="200" as="targetPoint" />
            <Array as="points">
              <mxPoint x="479.5" y="160" />
              <mxPoint x="479.5" y="160" />
            </Array>
          </mxGeometry>
        </mxCell>
        <mxCell id="Nu--JUsG2LK7wed0hN_F-63" value="" style="endArrow=none;html=1;edgeStyle=orthogonalEdgeStyle;rounded=0;" edge="1" parent="WIyWlLk6GJQsqaUBKTNV-1">
          <mxGeometry relative="1" as="geometry">
            <mxPoint x="600" y="200" as="sourcePoint" />
            <mxPoint x="600" y="200" as="targetPoint" />
            <Array as="points">
              <mxPoint x="600" y="160" />
              <mxPoint x="600" y="160" />
            </Array>
          </mxGeometry>
        </mxCell>
        <mxCell id="Nu--JUsG2LK7wed0hN_F-64" value="" style="endArrow=none;html=1;edgeStyle=orthogonalEdgeStyle;rounded=0;" edge="1" parent="WIyWlLk6GJQsqaUBKTNV-1">
          <mxGeometry relative="1" as="geometry">
            <mxPoint x="359.5" y="200" as="sourcePoint" />
            <mxPoint x="359.5" y="200" as="targetPoint" />
            <Array as="points">
              <mxPoint x="359.5" y="160" />
              <mxPoint x="359.5" y="160" />
            </Array>
          </mxGeometry>
        </mxCell>
        <mxCell id="Nu--JUsG2LK7wed0hN_F-65" value="" style="endArrow=none;html=1;edgeStyle=orthogonalEdgeStyle;rounded=0;" edge="1" parent="WIyWlLk6GJQsqaUBKTNV-1">
          <mxGeometry relative="1" as="geometry">
            <mxPoint x="240" y="200" as="sourcePoint" />
            <mxPoint x="240" y="200" as="targetPoint" />
            <Array as="points">
              <mxPoint x="240" y="160" />
              <mxPoint x="240" y="160" />
            </Array>
          </mxGeometry>
        </mxCell>
        <mxCell id="Nu--JUsG2LK7wed0hN_F-67" value="" style="endArrow=none;html=1;edgeStyle=orthogonalEdgeStyle;rounded=0;entryX=0.513;entryY=1;entryDx=0;entryDy=0;entryPerimeter=0;exitX=0.488;exitY=1.077;exitDx=0;exitDy=0;exitPerimeter=0;" edge="1" parent="WIyWlLk6GJQsqaUBKTNV-1" source="Nu--JUsG2LK7wed0hN_F-32" target="Nu--JUsG2LK7wed0hN_F-57">
          <mxGeometry relative="1" as="geometry">
            <mxPoint x="120" y="270" as="sourcePoint" />
            <mxPoint x="720" y="260" as="targetPoint" />
            <Array as="points">
              <mxPoint x="120" y="290" />
              <mxPoint x="721" y="290" />
            </Array>
          </mxGeometry>
        </mxCell>
        <mxCell id="Nu--JUsG2LK7wed0hN_F-69" value="" style="endArrow=none;html=1;edgeStyle=orthogonalEdgeStyle;rounded=0;" edge="1" parent="WIyWlLk6GJQsqaUBKTNV-1">
          <mxGeometry relative="1" as="geometry">
            <mxPoint x="239.5" y="292" as="sourcePoint" />
            <mxPoint x="239.5" y="292" as="targetPoint" />
            <Array as="points">
              <mxPoint x="239.5" y="252" />
              <mxPoint x="239.5" y="252" />
            </Array>
          </mxGeometry>
        </mxCell>
        <mxCell id="Nu--JUsG2LK7wed0hN_F-70" value="" style="endArrow=none;html=1;edgeStyle=orthogonalEdgeStyle;rounded=0;" edge="1" parent="WIyWlLk6GJQsqaUBKTNV-1">
          <mxGeometry relative="1" as="geometry">
            <mxPoint x="359.5" y="292" as="sourcePoint" />
            <mxPoint x="359.5" y="292" as="targetPoint" />
            <Array as="points">
              <mxPoint x="359.5" y="252" />
              <mxPoint x="359.5" y="252" />
            </Array>
          </mxGeometry>
        </mxCell>
        <mxCell id="Nu--JUsG2LK7wed0hN_F-71" value="" style="endArrow=none;html=1;edgeStyle=orthogonalEdgeStyle;rounded=0;" edge="1" parent="WIyWlLk6GJQsqaUBKTNV-1">
          <mxGeometry relative="1" as="geometry">
            <mxPoint x="479.5" y="292" as="sourcePoint" />
            <mxPoint x="479.5" y="292" as="targetPoint" />
            <Array as="points">
              <mxPoint x="479.5" y="252" />
              <mxPoint x="479.5" y="252" />
            </Array>
          </mxGeometry>
        </mxCell>
        <mxCell id="Nu--JUsG2LK7wed0hN_F-72" value="" style="endArrow=none;html=1;edgeStyle=orthogonalEdgeStyle;rounded=0;" edge="1" parent="WIyWlLk6GJQsqaUBKTNV-1">
          <mxGeometry relative="1" as="geometry">
            <mxPoint x="599.5" y="292" as="sourcePoint" />
            <mxPoint x="599.5" y="292" as="targetPoint" />
            <Array as="points">
              <mxPoint x="599.5" y="252" />
              <mxPoint x="599.5" y="252" />
            </Array>
          </mxGeometry>
        </mxCell>
        <mxCell id="Nu--JUsG2LK7wed0hN_F-74" value="" style="endArrow=none;html=1;edgeStyle=orthogonalEdgeStyle;rounded=0;entryX=0;entryY=0;entryDx=180;entryDy=385;entryPerimeter=0;" edge="1" parent="WIyWlLk6GJQsqaUBKTNV-1" target="Nu--JUsG2LK7wed0hN_F-79">
          <mxGeometry relative="1" as="geometry">
            <mxPoint x="413" y="330" as="sourcePoint" />
            <mxPoint x="440" y="320" as="targetPoint" />
            <Array as="points">
              <mxPoint x="413" y="310" />
            </Array>
          </mxGeometry>
        </mxCell>
        <mxCell id="Nu--JUsG2LK7wed0hN_F-75" value="Record" style="swimlane;fontStyle=0;childLayout=stackLayout;horizontal=1;startSize=26;fillColor=none;horizontalStack=0;resizeParent=1;resizeParentMax=0;resizeLast=0;collapsible=1;marginBottom=0;whiteSpace=wrap;html=1;" vertex="1" parent="WIyWlLk6GJQsqaUBKTNV-1">
          <mxGeometry x="40" y="330" width="760" height="462" as="geometry" />
        </mxCell>
        <mxCell id="Nu--JUsG2LK7wed0hN_F-76" value="+ __init__ (name,&amp;nbsp;&amp;nbsp;&lt;span style=&quot;font-family: Menlo, Monaco, &amp;quot;Courier New&amp;quot;, monospace;&quot;&gt;phone&lt;/span&gt;&lt;span style=&quot;font-family: Menlo, Monaco, &amp;quot;Courier New&amp;quot;, monospace;&quot;&gt;,&amp;nbsp;&lt;/span&gt;&lt;span style=&quot;font-family: Menlo, Monaco, &amp;quot;Courier New&amp;quot;, monospace;&quot;&gt;birthday&lt;/span&gt;&lt;span style=&quot;font-family: Menlo, Monaco, &amp;quot;Courier New&amp;quot;, monospace;&quot;&gt;, &lt;/span&gt;&lt;span style=&quot;font-family: Menlo, Monaco, &amp;quot;Courier New&amp;quot;, monospace;&quot;&gt;email&lt;/span&gt;&lt;span style=&quot;font-family: Menlo, Monaco, &amp;quot;Courier New&amp;quot;, monospace;&quot;&gt;, &lt;/span&gt;&lt;span style=&quot;font-family: Menlo, Monaco, &amp;quot;Courier New&amp;quot;, monospace;&quot;&gt;notes&lt;/span&gt;&lt;span style=&quot;font-family: Menlo, Monaco, &amp;quot;Courier New&amp;quot;, monospace;&quot;&gt;, &lt;/span&gt;&lt;span style=&quot;font-family: Menlo, Monaco, &amp;quot;Courier New&amp;quot;, monospace;&quot;&gt;address&lt;/span&gt;&lt;span style=&quot;background-color: initial;&quot;&gt;)&lt;/span&gt;" style="text;strokeColor=none;fillColor=none;align=center;verticalAlign=top;spacingLeft=4;spacingRight=4;overflow=hidden;rotatable=0;points=[[0,0.5],[1,0.5]];portConstraint=eastwest;whiteSpace=wrap;html=1;" vertex="1" parent="Nu--JUsG2LK7wed0hN_F-75">
          <mxGeometry y="26" width="760" height="26" as="geometry" />
        </mxCell>
        <mxCell id="Nu--JUsG2LK7wed0hN_F-77" value="+ add_phone" style="text;align=center;verticalAlign=top;spacingLeft=4;spacingRight=4;overflow=hidden;rotatable=0;points=[[0,0.5],[1,0.5]];portConstraint=eastwest;whiteSpace=wrap;html=1;shadow=0;fillColor=#dae8fc;strokeColor=#6c8ebf;" vertex="1" parent="Nu--JUsG2LK7wed0hN_F-75">
          <mxGeometry y="52" width="760" height="26" as="geometry" />
        </mxCell>
        <mxCell id="Nu--JUsG2LK7wed0hN_F-78" value="+ remove_phone" style="text;align=center;verticalAlign=top;spacingLeft=4;spacingRight=4;overflow=hidden;rotatable=0;points=[[0,0.5],[1,0.5]];portConstraint=eastwest;whiteSpace=wrap;html=1;shadow=0;fillColor=#dae8fc;strokeColor=#6c8ebf;" vertex="1" parent="Nu--JUsG2LK7wed0hN_F-75">
          <mxGeometry y="78" width="760" height="32" as="geometry" />
        </mxCell>
        <mxCell id="Nu--JUsG2LK7wed0hN_F-84" value="+ edit_email" style="text;align=center;verticalAlign=top;spacingLeft=4;spacingRight=4;overflow=hidden;rotatable=0;points=[[0,0.5],[1,0.5]];portConstraint=eastwest;whiteSpace=wrap;html=1;shadow=0;fillColor=#fff2cc;strokeColor=#d6b656;" vertex="1" parent="Nu--JUsG2LK7wed0hN_F-75">
          <mxGeometry y="110" width="760" height="32" as="geometry" />
        </mxCell>
        <mxCell id="Nu--JUsG2LK7wed0hN_F-85" value="+ show_notes" style="text;strokeColor=#d79b00;fillColor=#ffe6cc;align=center;verticalAlign=top;spacingLeft=4;spacingRight=4;overflow=hidden;rotatable=0;points=[[0,0.5],[1,0.5]];portConstraint=eastwest;whiteSpace=wrap;html=1;" vertex="1" parent="Nu--JUsG2LK7wed0hN_F-75">
          <mxGeometry y="142" width="760" height="32" as="geometry" />
        </mxCell>
        <mxCell id="Nu--JUsG2LK7wed0hN_F-86" value="+ find_notes" style="text;strokeColor=#d79b00;fillColor=#ffe6cc;align=center;verticalAlign=top;spacingLeft=4;spacingRight=4;overflow=hidden;rotatable=0;points=[[0,0.5],[1,0.5]];portConstraint=eastwest;whiteSpace=wrap;html=1;" vertex="1" parent="Nu--JUsG2LK7wed0hN_F-75">
          <mxGeometry y="174" width="760" height="32" as="geometry" />
        </mxCell>
        <mxCell id="Nu--JUsG2LK7wed0hN_F-87" value="+ delete_notes" style="text;strokeColor=#d79b00;fillColor=#ffe6cc;align=center;verticalAlign=top;spacingLeft=4;spacingRight=4;overflow=hidden;rotatable=0;points=[[0,0.5],[1,0.5]];portConstraint=eastwest;whiteSpace=wrap;html=1;" vertex="1" parent="Nu--JUsG2LK7wed0hN_F-75">
          <mxGeometry y="206" width="760" height="32" as="geometry" />
        </mxCell>
        <mxCell id="Nu--JUsG2LK7wed0hN_F-88" value="+ add_notes" style="text;strokeColor=#d79b00;fillColor=#ffe6cc;align=center;verticalAlign=top;spacingLeft=4;spacingRight=4;overflow=hidden;rotatable=0;points=[[0,0.5],[1,0.5]];portConstraint=eastwest;whiteSpace=wrap;html=1;" vertex="1" parent="Nu--JUsG2LK7wed0hN_F-75">
          <mxGeometry y="238" width="760" height="32" as="geometry" />
        </mxCell>
        <mxCell id="Nu--JUsG2LK7wed0hN_F-89" value="+ edit_notes" style="text;strokeColor=#d79b00;fillColor=#ffe6cc;align=center;verticalAlign=top;spacingLeft=4;spacingRight=4;overflow=hidden;rotatable=0;points=[[0,0.5],[1,0.5]];portConstraint=eastwest;whiteSpace=wrap;html=1;" vertex="1" parent="Nu--JUsG2LK7wed0hN_F-75">
          <mxGeometry y="270" width="760" height="32" as="geometry" />
        </mxCell>
        <mxCell id="Nu--JUsG2LK7wed0hN_F-90" value="+ add_tag" style="text;strokeColor=#d79b00;fillColor=#ffe6cc;align=center;verticalAlign=top;spacingLeft=4;spacingRight=4;overflow=hidden;rotatable=0;points=[[0,0.5],[1,0.5]];portConstraint=eastwest;whiteSpace=wrap;html=1;" vertex="1" parent="Nu--JUsG2LK7wed0hN_F-75">
          <mxGeometry y="302" width="760" height="32" as="geometry" />
        </mxCell>
        <mxCell id="Nu--JUsG2LK7wed0hN_F-91" value="+ remove_tag" style="text;strokeColor=#d79b00;fillColor=#ffe6cc;align=center;verticalAlign=top;spacingLeft=4;spacingRight=4;overflow=hidden;rotatable=0;points=[[0,0.5],[1,0.5]];portConstraint=eastwest;whiteSpace=wrap;html=1;" vertex="1" parent="Nu--JUsG2LK7wed0hN_F-75">
          <mxGeometry y="334" width="760" height="32" as="geometry" />
        </mxCell>
        <mxCell id="Nu--JUsG2LK7wed0hN_F-92" value="+ sort_notes" style="text;strokeColor=#d79b00;fillColor=#ffe6cc;align=center;verticalAlign=top;spacingLeft=4;spacingRight=4;overflow=hidden;rotatable=0;points=[[0,0.5],[1,0.5]];portConstraint=eastwest;whiteSpace=wrap;html=1;" vertex="1" parent="Nu--JUsG2LK7wed0hN_F-75">
          <mxGeometry y="366" width="760" height="32" as="geometry" />
        </mxCell>
        <mxCell id="Nu--JUsG2LK7wed0hN_F-93" value="+&amp;nbsp;days_to_birthday" style="text;strokeColor=#9673a6;fillColor=#e1d5e7;align=center;verticalAlign=top;spacingLeft=4;spacingRight=4;overflow=hidden;rotatable=0;points=[[0,0.5],[1,0.5]];portConstraint=eastwest;whiteSpace=wrap;html=1;" vertex="1" parent="Nu--JUsG2LK7wed0hN_F-75">
          <mxGeometry y="398" width="760" height="32" as="geometry" />
        </mxCell>
        <mxCell id="Nu--JUsG2LK7wed0hN_F-94" value="+ __str__" style="text;strokeColor=none;fillColor=none;align=center;verticalAlign=top;spacingLeft=4;spacingRight=4;overflow=hidden;rotatable=0;points=[[0,0.5],[1,0.5]];portConstraint=eastwest;whiteSpace=wrap;html=1;" vertex="1" parent="Nu--JUsG2LK7wed0hN_F-75">
          <mxGeometry y="430" width="760" height="32" as="geometry" />
        </mxCell>
        <mxCell id="Nu--JUsG2LK7wed0hN_F-97" value="1" style="endArrow=open;html=1;endSize=12;startArrow=diamondThin;startSize=14;startFill=0;edgeStyle=orthogonalEdgeStyle;align=left;verticalAlign=bottom;rounded=0;exitX=1.005;exitY=0.837;exitDx=0;exitDy=0;exitPerimeter=0;" edge="1" parent="WIyWlLk6GJQsqaUBKTNV-1" source="Nu--JUsG2LK7wed0hN_F-87">
          <mxGeometry x="-1" y="3" relative="1" as="geometry">
            <mxPoint x="850.23" y="530" as="sourcePoint" />
            <mxPoint x="880" y="563" as="targetPoint" />
          </mxGeometry>
        </mxCell>
        <mxCell id="Nu--JUsG2LK7wed0hN_F-98" value="AdressBook" style="swimlane;fontStyle=0;childLayout=stackLayout;horizontal=1;startSize=26;fillColor=none;horizontalStack=0;resizeParent=1;resizeParentMax=0;resizeLast=0;collapsible=1;marginBottom=0;whiteSpace=wrap;html=1;" vertex="1" parent="WIyWlLk6GJQsqaUBKTNV-1">
          <mxGeometry x="880" y="394" width="760" height="334" as="geometry" />
        </mxCell>
        <mxCell id="Nu--JUsG2LK7wed0hN_F-99" value="+&amp;nbsp;add_record" style="text;strokeColor=none;fillColor=none;align=center;verticalAlign=top;spacingLeft=4;spacingRight=4;overflow=hidden;rotatable=0;points=[[0,0.5],[1,0.5]];portConstraint=eastwest;whiteSpace=wrap;html=1;" vertex="1" parent="Nu--JUsG2LK7wed0hN_F-98">
          <mxGeometry y="26" width="760" height="26" as="geometry" />
        </mxCell>
        <mxCell id="Nu--JUsG2LK7wed0hN_F-100" value="+&amp;nbsp;find" style="text;align=center;verticalAlign=top;spacingLeft=4;spacingRight=4;overflow=hidden;rotatable=0;points=[[0,0.5],[1,0.5]];portConstraint=eastwest;whiteSpace=wrap;html=1;shadow=0;" vertex="1" parent="Nu--JUsG2LK7wed0hN_F-98">
          <mxGeometry y="52" width="760" height="26" as="geometry" />
        </mxCell>
        <mxCell id="Nu--JUsG2LK7wed0hN_F-101" value="+&amp;nbsp;delete" style="text;align=center;verticalAlign=top;spacingLeft=4;spacingRight=4;overflow=hidden;rotatable=0;points=[[0,0.5],[1,0.5]];portConstraint=eastwest;whiteSpace=wrap;html=1;shadow=0;" vertex="1" parent="Nu--JUsG2LK7wed0hN_F-98">
          <mxGeometry y="78" width="760" height="32" as="geometry" />
        </mxCell>
        <mxCell id="Nu--JUsG2LK7wed0hN_F-102" value="+&amp;nbsp;save_to_file" style="text;align=center;verticalAlign=top;spacingLeft=4;spacingRight=4;overflow=hidden;rotatable=0;points=[[0,0.5],[1,0.5]];portConstraint=eastwest;whiteSpace=wrap;html=1;shadow=0;" vertex="1" parent="Nu--JUsG2LK7wed0hN_F-98">
          <mxGeometry y="110" width="760" height="32" as="geometry" />
        </mxCell>
        <mxCell id="Nu--JUsG2LK7wed0hN_F-103" value="+&amp;nbsp;restore_from_file" style="text;align=center;verticalAlign=top;spacingLeft=4;spacingRight=4;overflow=hidden;rotatable=0;points=[[0,0.5],[1,0.5]];portConstraint=eastwest;whiteSpace=wrap;html=1;" vertex="1" parent="Nu--JUsG2LK7wed0hN_F-98">
          <mxGeometry y="142" width="760" height="32" as="geometry" />
        </mxCell>
        <mxCell id="Nu--JUsG2LK7wed0hN_F-104" value="+&amp;nbsp;search" style="text;align=center;verticalAlign=top;spacingLeft=4;spacingRight=4;overflow=hidden;rotatable=0;points=[[0,0.5],[1,0.5]];portConstraint=eastwest;whiteSpace=wrap;html=1;" vertex="1" parent="Nu--JUsG2LK7wed0hN_F-98">
          <mxGeometry y="174" width="760" height="32" as="geometry" />
        </mxCell>
        <mxCell id="Nu--JUsG2LK7wed0hN_F-105" value="+&amp;nbsp;validate_input" style="text;align=center;verticalAlign=top;spacingLeft=4;spacingRight=4;overflow=hidden;rotatable=0;points=[[0,0.5],[1,0.5]];portConstraint=eastwest;whiteSpace=wrap;html=1;" vertex="1" parent="Nu--JUsG2LK7wed0hN_F-98">
          <mxGeometry y="206" width="760" height="32" as="geometry" />
        </mxCell>
        <mxCell id="Nu--JUsG2LK7wed0hN_F-106" value="+&amp;nbsp;get_contact" style="text;align=center;verticalAlign=top;spacingLeft=4;spacingRight=4;overflow=hidden;rotatable=0;points=[[0,0.5],[1,0.5]];portConstraint=eastwest;whiteSpace=wrap;html=1;" vertex="1" parent="Nu--JUsG2LK7wed0hN_F-98">
          <mxGeometry y="238" width="760" height="32" as="geometry" />
        </mxCell>
        <mxCell id="Nu--JUsG2LK7wed0hN_F-107" value="-&amp;nbsp;__iter__" style="text;align=center;verticalAlign=top;spacingLeft=4;spacingRight=4;overflow=hidden;rotatable=0;points=[[0,0.5],[1,0.5]];portConstraint=eastwest;whiteSpace=wrap;html=1;" vertex="1" parent="Nu--JUsG2LK7wed0hN_F-98">
          <mxGeometry y="270" width="760" height="32" as="geometry" />
        </mxCell>
        <mxCell id="Nu--JUsG2LK7wed0hN_F-108" value="-&amp;nbsp;__repr__" style="text;align=center;verticalAlign=top;spacingLeft=4;spacingRight=4;overflow=hidden;rotatable=0;points=[[0,0.5],[1,0.5]];portConstraint=eastwest;whiteSpace=wrap;html=1;" vertex="1" parent="Nu--JUsG2LK7wed0hN_F-98">
          <mxGeometry y="302" width="760" height="32" as="geometry" />
        </mxCell>
        <mxCell id="Nu--JUsG2LK7wed0hN_F-113" value="UserDict" style="swimlane;fontStyle=0;childLayout=stackLayout;horizontal=1;startSize=26;fillColor=none;horizontalStack=0;resizeParent=1;resizeParentMax=0;resizeLast=0;collapsible=1;marginBottom=0;whiteSpace=wrap;html=1;" vertex="1" parent="WIyWlLk6GJQsqaUBKTNV-1">
          <mxGeometry x="940" y="220" width="140" height="52" as="geometry" />
        </mxCell>
        <mxCell id="Nu--JUsG2LK7wed0hN_F-114" value="data" style="text;strokeColor=none;fillColor=none;align=center;verticalAlign=top;spacingLeft=4;spacingRight=4;overflow=hidden;rotatable=0;points=[[0,0.5],[1,0.5]];portConstraint=eastwest;whiteSpace=wrap;html=1;" vertex="1" parent="Nu--JUsG2LK7wed0hN_F-113">
          <mxGeometry y="26" width="140" height="26" as="geometry" />
        </mxCell>
        <mxCell id="Nu--JUsG2LK7wed0hN_F-118" value="" style="endArrow=block;endFill=1;html=1;edgeStyle=orthogonalEdgeStyle;align=left;verticalAlign=top;rounded=0;" edge="1" parent="WIyWlLk6GJQsqaUBKTNV-1">
          <mxGeometry x="-1" relative="1" as="geometry">
            <mxPoint x="1009.5699999999999" y="272" as="sourcePoint" />
            <mxPoint x="1010" y="390" as="targetPoint" />
          </mxGeometry>
        </mxCell>
        <mxCell id="Nu--JUsG2LK7wed0hN_F-120" value="&lt;div style=&quot;font-family: Menlo, Monaco, &amp;quot;Courier New&amp;quot;, monospace; line-height: 18px;&quot;&gt;AddressBookIterator&lt;/div&gt;" style="swimlane;fontStyle=0;childLayout=stackLayout;horizontal=1;startSize=26;fillColor=none;horizontalStack=0;resizeParent=1;resizeParentMax=0;resizeLast=0;collapsible=1;marginBottom=0;whiteSpace=wrap;html=1;" vertex="1" parent="WIyWlLk6GJQsqaUBKTNV-1">
          <mxGeometry x="1420" y="194" width="180" height="104" as="geometry" />
        </mxCell>
        <mxCell id="Nu--JUsG2LK7wed0hN_F-121" value="+&amp;nbsp;records_list" style="text;strokeColor=none;fillColor=none;align=center;verticalAlign=top;spacingLeft=4;spacingRight=4;overflow=hidden;rotatable=0;points=[[0,0.5],[1,0.5]];portConstraint=eastwest;whiteSpace=wrap;html=1;" vertex="1" parent="Nu--JUsG2LK7wed0hN_F-120">
          <mxGeometry y="26" width="180" height="26" as="geometry" />
        </mxCell>
        <mxCell id="Nu--JUsG2LK7wed0hN_F-122" value="+&amp;nbsp;page_size" style="text;strokeColor=none;fillColor=none;align=center;verticalAlign=top;spacingLeft=4;spacingRight=4;overflow=hidden;rotatable=0;points=[[0,0.5],[1,0.5]];portConstraint=eastwest;whiteSpace=wrap;html=1;" vertex="1" parent="Nu--JUsG2LK7wed0hN_F-120">
          <mxGeometry y="52" width="180" height="26" as="geometry" />
        </mxCell>
        <mxCell id="Nu--JUsG2LK7wed0hN_F-123" value="+&amp;nbsp;counter" style="text;strokeColor=none;fillColor=none;align=center;verticalAlign=top;spacingLeft=4;spacingRight=4;overflow=hidden;rotatable=0;points=[[0,0.5],[1,0.5]];portConstraint=eastwest;whiteSpace=wrap;html=1;" vertex="1" parent="Nu--JUsG2LK7wed0hN_F-120">
          <mxGeometry y="78" width="180" height="26" as="geometry" />
        </mxCell>
        <mxCell id="Nu--JUsG2LK7wed0hN_F-124" value="" style="endArrow=block;endFill=1;html=1;edgeStyle=orthogonalEdgeStyle;align=left;verticalAlign=top;rounded=0;" edge="1" parent="WIyWlLk6GJQsqaUBKTNV-1">
          <mxGeometry x="-1" relative="1" as="geometry">
            <mxPoint x="1509.52" y="298" as="sourcePoint" />
            <mxPoint x="1510" y="390" as="targetPoint" />
          </mxGeometry>
        </mxCell>
      </root>
    </mxGraphModel>
  </diagram>
</mxfile>
